<svg version="1.2" xmlns="http://www.w3.org/2000/svg" viewBox="0 0 250 520" width="250" height="520"><style>.a{fill:#fff}</style><path fill-rule="evenodd" class="a" d="m241.5 186.8v146.4c0 64.7-52.6 117.3-117.3 117.3-64.6 0-117.2-52.6-117.2-117.3v-146.4c0-52.1 49.9-81.7 103.8-86.7-2.4-12.1 8-23.4 20.1-31.8 7.7-5.5 19.1-16.4 11.6-26.2-6.6-8.8-16.5-15.2-24.1-23.2-9.9-10.2 5.7-25.8 15.6-15.6 13.7 14.2 41 30.7 31.8 54.7-4.2 10.6-10.3 19.6-19.6 26.3-3.5 2.5-7.4 4.8-10.6 7.8-4.3 3.9-4.2 2.9-0.2 6.4 0.3 0.4 0.6 0.7 0.9 1 52.2 2.8 105.2 30.4 105.2 87.3zm-212.5 54.7c13.7 4.4 45.9 13.5 85.6 15.5v-135c-43.5 3.7-85.6 26.1-85.6 64.8zm190.4 23.9c-30.7 10.6-61.6 14.3-89.7 14.3-43.8 0-80.9-9-100.7-15v68.5c0 52.5 42.8 95.2 95.2 95.2 52.5 0 95.2-42.7 95.2-95.2 0 0 0-67.8 0-67.8zm0-78.6c0-42.2-40.2-62.6-82.7-65.2v135.7c26.3-0.6 54.8-4.7 82.7-15.4zm-114.3-53.4v112c-17.2 3-67.6-11.1-67.6-11.1-7.5-78.5 21.9-92.3 67.6-100.9z"/></svg>